<svg width="175" height="8" viewBox="0 0 175 8" fill="none" xmlns="http://www.w3.org/2000/svg">
<path d="M3.98 7.75988C3.43333 7.75988 2.91666 7.66655 2.43 7.47988C1.95 7.28655 1.52666 7.01655 1.16 6.66988C0.799995 6.31655 0.516662 5.90655 0.309995 5.43988C0.103328 4.96655 -4.87268e-06 4.44655 -4.87268e-06 3.87988C-4.87268e-06 3.31322 0.103328 2.79322 0.309995 2.31988C0.516662 1.84655 0.803328 1.43655 1.17 1.08988C1.53666 0.743216 1.96 0.476549 2.44 0.289883C2.92 0.0965493 3.43333 -0.000117302 3.98 -0.000117302C4.53333 -0.000117302 5.05 0.0965493 5.53 0.289883C6.01 0.476549 6.43 0.746549 6.79 1.09988C7.15666 1.44655 7.44333 1.85655 7.65 2.32988C7.85666 2.79655 7.96 3.31322 7.96 3.87988C7.96 4.44655 7.85666 4.96655 7.65 5.43988C7.44333 5.90655 7.15666 6.31655 6.79 6.66988C6.43 7.01655 6.01 7.28655 5.53 7.47988C5.05 7.66655 4.53333 7.75988 3.98 7.75988ZM3.98 7.16988C4.44666 7.16988 4.88 7.09322 5.28 6.93988C5.68666 6.77988 6.04333 6.55322 6.35 6.25988C6.65666 5.96655 6.89666 5.61988 7.07 5.21988C7.24333 4.81322 7.33 4.36655 7.33 3.87988C7.33 3.39322 7.24333 2.94988 7.07 2.54988C6.89666 2.14322 6.65666 1.79322 6.35 1.49988C6.04333 1.20655 5.68666 0.979883 5.28 0.819882C4.88 0.659882 4.44666 0.579882 3.98 0.579882C3.52 0.579882 3.08666 0.659882 2.68 0.819882C2.27333 0.979883 1.91666 1.20655 1.61 1.49988C1.30333 1.79322 1.06333 2.14322 0.889995 2.54988C0.716662 2.94988 0.629995 3.39322 0.629995 3.87988C0.629995 4.36655 0.716662 4.80988 0.889995 5.20988C1.06333 5.60988 1.30333 5.95988 1.61 6.25988C1.91666 6.55322 2.27333 6.77988 2.68 6.93988C3.08666 7.09322 3.52 7.16988 3.98 7.16988ZM6.45 4.35988C6.41 4.74655 6.28 5.08655 6.06 5.37988C5.84666 5.66655 5.56333 5.88988 5.21 6.04988C4.86333 6.20988 4.46333 6.28988 4.01 6.28988C3.50333 6.28988 3.06 6.18988 2.68 5.98988C2.3 5.78322 2.00333 5.49988 1.79 5.13988C1.58333 4.77322 1.48 4.34988 1.48 3.86988C1.48 3.38322 1.58333 2.95988 1.79 2.59988C2.00333 2.23322 2.3 1.94988 2.68 1.74988C3.06 1.54322 3.50333 1.43988 4.01 1.43988C4.45666 1.43988 4.85333 1.51988 5.2 1.67988C5.55333 1.83988 5.84 2.06655 6.06 2.35988C6.28 2.64655 6.41 2.98322 6.45 3.36988H5.67C5.60333 2.98322 5.42 2.67988 5.12 2.45988C4.82666 2.23322 4.45333 2.11988 4 2.11988C3.46666 2.11988 3.04333 2.27988 2.73 2.59988C2.41666 2.91322 2.26 3.33655 2.26 3.86988C2.26 4.39655 2.41666 4.81988 2.73 5.13988C3.04333 5.45988 3.46666 5.61988 4 5.61988C4.46 5.61988 4.83666 5.50655 5.13 5.27988C5.42333 5.05322 5.60333 4.74655 5.67 4.35988H6.45ZM21.9024 0.129882V7.62988H21.0024V0.349882L21.3724 0.359882L17.5824 7.62988H16.5824L12.7924 0.369883L13.1624 0.359882V7.62988H12.2624V0.129882H13.6824L17.3824 7.30988H16.7924L20.4824 0.129882H21.9024ZM24.4973 5.76988V4.96988H29.7773V5.76988H24.4973ZM27.7273 0.129882L31.4173 7.62988H30.3973L26.9273 0.449882H27.4273L23.9473 7.62988H22.9273L26.6173 0.129882H27.7273ZM33.7941 7.62988V4.07988H34.7341V7.62988H33.7941ZM30.2441 0.129882H31.3241L34.5741 4.15988H33.9641L37.1941 0.129882H38.2741L34.5641 4.74988L33.9741 4.75988L30.2441 0.129882ZM38.4997 7.69988C38.3797 7.69988 38.2697 7.67322 38.1697 7.61988C38.0697 7.55988 37.9897 7.47988 37.9297 7.37988C37.8763 7.27988 37.8497 7.16988 37.8497 7.04988C37.8497 6.92322 37.8763 6.81322 37.9297 6.71988C37.9897 6.61988 38.0663 6.54322 38.1597 6.48988C38.2597 6.42988 38.373 6.39988 38.4997 6.39988C38.6197 6.39988 38.7263 6.42988 38.8197 6.48988C38.9197 6.54322 38.9997 6.61988 39.0597 6.71988C39.1197 6.81988 39.1497 6.92988 39.1497 7.04988C39.1497 7.16988 39.1197 7.27988 39.0597 7.37988C38.9997 7.47322 38.9197 7.54988 38.8197 7.60988C38.7263 7.66988 38.6197 7.69988 38.4997 7.69988ZM41.3723 5.76988V4.96988H46.6523V5.76988H41.3723ZM44.6023 0.129882L48.2923 7.62988H47.2723L43.8023 0.449882H44.3023L40.8223 7.62988H39.8023L43.4923 0.129882H44.6023ZM50.2532 0.129882V7.20988L49.8332 6.79988H55.5032V7.62988H49.3132V0.129882H50.2532ZM57.4895 0.129882V7.20988L57.0695 6.79988H62.7395V7.62988H56.5495V0.129882H57.4895ZM66.8284 3.66988H70.0484C70.5418 3.66988 70.9351 3.54655 71.2284 3.29988C71.5284 3.05322 71.6784 2.72322 71.6784 2.30988C71.6784 1.88988 71.5284 1.55988 71.2284 1.31988C70.9351 1.07322 70.5418 0.949882 70.0484 0.949882H66.6984L67.1184 0.449882V7.62988H66.1784V0.129882H70.0784C70.5851 0.129882 71.0284 0.223216 71.4084 0.409882C71.7884 0.589882 72.0851 0.843216 72.2984 1.16988C72.5184 1.49655 72.6284 1.87655 72.6284 2.30988C72.6284 2.73655 72.5184 3.11322 72.2984 3.43988C72.0851 3.76655 71.7884 4.02322 71.4084 4.20988C71.0284 4.38988 70.5851 4.47988 70.0784 4.47988H66.8284V3.66988ZM68.4884 4.11988H69.6484L72.7784 7.62988H71.6084L68.4884 4.11988ZM74.0593 0.129882H74.9993V7.62988H74.0593V0.129882ZM84.2432 4.35988C84.2365 4.83322 84.1432 5.27655 83.9632 5.68988C83.7899 6.10322 83.5399 6.46655 83.2132 6.77988C82.8932 7.08655 82.5032 7.32655 82.0432 7.49988C81.5899 7.67322 81.0799 7.75988 80.5132 7.75988C79.9132 7.75988 79.3599 7.66988 78.8532 7.48988C78.3532 7.30322 77.9165 7.03988 77.5432 6.69988C77.1765 6.35988 76.8932 5.95322 76.6932 5.47988C76.4932 4.99988 76.3932 4.46655 76.3932 3.87988C76.3932 3.29322 76.4932 2.76322 76.6932 2.28988C76.8999 1.80988 77.1899 1.39988 77.5632 1.05988C77.9365 0.719883 78.3765 0.459883 78.8832 0.279883C79.3899 0.093216 79.9499 -0.000117302 80.5632 -0.000117302C81.2965 -0.000117302 81.9432 0.123216 82.5032 0.369883C83.0699 0.616549 83.5265 0.956549 83.8732 1.38988C84.2199 1.81655 84.4265 2.30655 84.4932 2.85988H83.5332C83.4599 2.45322 83.2899 2.09988 83.0232 1.79988C82.7565 1.49322 82.4132 1.25655 81.9932 1.08988C81.5799 0.923216 81.0965 0.839883 80.5432 0.839883C79.8965 0.839883 79.3332 0.963216 78.8532 1.20988C78.3799 1.45655 78.0099 1.80655 77.7432 2.25988C77.4832 2.71322 77.3532 3.25322 77.3532 3.87988C77.3532 4.49988 77.4865 5.03988 77.7532 5.49988C78.0199 5.95988 78.3965 6.31322 78.8832 6.55988C79.3699 6.80655 79.9399 6.92988 80.5932 6.92988C81.2332 6.92988 81.7899 6.81322 82.2632 6.57988C82.7432 6.34655 83.1165 6.02655 83.3832 5.61988C83.6499 5.21322 83.7899 4.74655 83.8032 4.21988L84.2432 4.35988ZM80.9632 4.76988V4.01988H84.5832V7.62988H83.8532L83.7632 4.44988L84.0232 4.76988H80.9632ZM86.1394 0.129882H87.0794V7.62988H86.1394V0.129882ZM92.3394 0.129882H93.2794V7.62988H92.3394V0.129882ZM86.6194 3.44988H92.8494V4.27988H86.6194V3.44988ZM97.5447 0.579882H98.4847V7.62988H97.5447V0.579882ZM94.3247 0.129882H101.705V0.959882H94.3247V0.129882ZM101.958 5.19988H102.908C102.954 5.55322 103.094 5.86322 103.328 6.12988C103.561 6.39655 103.868 6.60322 104.248 6.74988C104.634 6.88988 105.078 6.95988 105.578 6.95988C106.331 6.95988 106.928 6.83322 107.368 6.57988C107.814 6.31988 108.038 5.96988 108.038 5.52988C108.038 5.18988 107.898 4.92988 107.618 4.74988C107.344 4.56988 106.864 4.43988 106.178 4.35988L104.728 4.17988C103.814 4.07322 103.158 3.85655 102.758 3.52988C102.358 3.19655 102.158 2.74988 102.158 2.18988C102.158 1.74322 102.291 1.35655 102.558 1.02988C102.824 0.696549 103.198 0.443216 103.678 0.269882C104.164 0.0898825 104.731 -0.000117302 105.378 -0.000117302C106.024 -0.000117302 106.598 0.0998826 107.098 0.299882C107.604 0.493216 108.004 0.766549 108.298 1.11988C108.598 1.46655 108.761 1.87655 108.788 2.34988H107.838C107.798 2.02988 107.671 1.75655 107.458 1.52988C107.244 1.29655 106.958 1.11655 106.598 0.989882C106.244 0.856549 105.831 0.789883 105.358 0.789883C104.671 0.789883 104.121 0.913216 103.708 1.15988C103.301 1.39988 103.098 1.73655 103.098 2.16988C103.098 2.50322 103.231 2.75988 103.498 2.93988C103.771 3.11322 104.231 3.23988 104.878 3.31988L106.298 3.50988C106.958 3.58988 107.481 3.70655 107.868 3.85988C108.261 4.01322 108.544 4.21988 108.718 4.47988C108.891 4.73322 108.978 5.05655 108.978 5.44988C108.978 5.92322 108.834 6.33322 108.548 6.67988C108.268 7.02655 107.871 7.29322 107.358 7.47988C106.844 7.66655 106.248 7.75988 105.568 7.75988C104.881 7.75988 104.271 7.65322 103.738 7.43988C103.204 7.21988 102.781 6.91988 102.468 6.53988C102.154 6.15322 101.984 5.70655 101.958 5.19988ZM113.733 3.66988H116.953C117.446 3.66988 117.839 3.54655 118.133 3.29988C118.433 3.05322 118.583 2.72322 118.583 2.30988C118.583 1.88988 118.433 1.55988 118.133 1.31988C117.839 1.07322 117.446 0.949882 116.953 0.949882H113.603L114.023 0.449882V7.62988H113.083V0.129882H116.983C117.489 0.129882 117.933 0.223216 118.313 0.409882C118.693 0.589882 118.989 0.843216 119.203 1.16988C119.423 1.49655 119.533 1.87655 119.533 2.30988C119.533 2.73655 119.423 3.11322 119.203 3.43988C118.989 3.76655 118.693 4.02322 118.313 4.20988C117.933 4.38988 117.489 4.47988 116.983 4.47988H113.733V3.66988ZM115.393 4.11988H116.553L119.683 7.62988H118.513L115.393 4.11988ZM126.744 3.47988V4.27988H121.634V3.47988H126.744ZM122.224 3.87988L121.654 7.39988L121.154 6.80988H127.014V7.62988H120.694L121.314 3.87988L120.694 0.129882H126.964V0.949882H121.154L121.654 0.359882L122.224 3.87988ZM127.954 5.19988H128.904C128.95 5.55322 129.09 5.86322 129.324 6.12988C129.557 6.39655 129.864 6.60322 130.244 6.74988C130.63 6.88988 131.074 6.95988 131.574 6.95988C132.327 6.95988 132.924 6.83322 133.364 6.57988C133.81 6.31988 134.034 5.96988 134.034 5.52988C134.034 5.18988 133.894 4.92988 133.614 4.74988C133.34 4.56988 132.86 4.43988 132.174 4.35988L130.724 4.17988C129.81 4.07322 129.154 3.85655 128.754 3.52988C128.354 3.19655 128.154 2.74988 128.154 2.18988C128.154 1.74322 128.287 1.35655 128.554 1.02988C128.82 0.696549 129.194 0.443216 129.674 0.269882C130.16 0.0898825 130.727 -0.000117302 131.374 -0.000117302C132.02 -0.000117302 132.594 0.0998826 133.094 0.299882C133.6 0.493216 134 0.766549 134.294 1.11988C134.594 1.46655 134.757 1.87655 134.784 2.34988H133.834C133.794 2.02988 133.667 1.75655 133.454 1.52988C133.24 1.29655 132.954 1.11655 132.594 0.989882C132.24 0.856549 131.827 0.789883 131.354 0.789883C130.667 0.789883 130.117 0.913216 129.704 1.15988C129.297 1.39988 129.094 1.73655 129.094 2.16988C129.094 2.50322 129.227 2.75988 129.494 2.93988C129.767 3.11322 130.227 3.23988 130.874 3.31988L132.294 3.50988C132.954 3.58988 133.477 3.70655 133.864 3.85988C134.257 4.01322 134.54 4.21988 134.714 4.47988C134.887 4.73322 134.974 5.05655 134.974 5.44988C134.974 5.92322 134.83 6.33322 134.544 6.67988C134.264 7.02655 133.867 7.29322 133.354 7.47988C132.84 7.66655 132.244 7.75988 131.564 7.75988C130.877 7.75988 130.267 7.65322 129.734 7.43988C129.2 7.21988 128.777 6.91988 128.464 6.53988C128.15 6.15322 127.98 5.70655 127.954 5.19988ZM142.095 3.47988V4.27988H136.985V3.47988H142.095ZM137.575 3.87988L137.005 7.39988L136.505 6.80988H142.365V7.62988H136.045L136.665 3.87988L136.045 0.129882H142.315V0.949882H136.505L137.005 0.359882L137.575 3.87988ZM144.475 3.66988H147.695C148.188 3.66988 148.582 3.54655 148.875 3.29988C149.175 3.05322 149.325 2.72322 149.325 2.30988C149.325 1.88988 149.175 1.55988 148.875 1.31988C148.582 1.07322 148.188 0.949882 147.695 0.949882H144.345L144.765 0.449882V7.62988H143.825V0.129882H147.725C148.232 0.129882 148.675 0.223216 149.055 0.409882C149.435 0.589882 149.732 0.843216 149.945 1.16988C150.165 1.49655 150.275 1.87655 150.275 2.30988C150.275 2.73655 150.165 3.11322 149.945 3.43988C149.732 3.76655 149.435 4.02322 149.055 4.20988C148.675 4.38988 148.232 4.47988 147.725 4.47988H144.475V3.66988ZM146.135 4.11988H147.295L150.425 7.62988H149.255L146.135 4.11988ZM155.014 7.25988H154.524L157.934 0.129882H158.954L155.264 7.62988H154.244L150.554 0.129882H151.574L155.014 7.25988ZM165.757 3.47988V4.27988H160.647V3.47988H165.757ZM161.237 3.87988L160.667 7.39988L160.167 6.80988H166.027V7.62988H159.707L160.327 3.87988L159.707 0.129882H165.977V0.949882H160.167L160.667 0.359882L161.237 3.87988ZM170.697 0.129882C171.53 0.129882 172.264 0.286549 172.897 0.599883C173.53 0.913216 174.024 1.35322 174.377 1.91988C174.73 2.47988 174.907 3.13322 174.907 3.87988C174.907 4.61988 174.73 5.27322 174.377 5.83988C174.024 6.39988 173.53 6.83988 172.897 7.15988C172.264 7.47322 171.53 7.62988 170.697 7.62988H167.487V0.129882H170.697ZM168.427 7.37988L167.827 6.79988H170.737C171.377 6.79988 171.937 6.67655 172.417 6.42988C172.897 6.18322 173.27 5.83988 173.537 5.39988C173.81 4.95988 173.947 4.45322 173.947 3.87988C173.947 3.29322 173.81 2.78322 173.537 2.34988C173.27 1.90988 172.897 1.56655 172.417 1.31988C171.937 1.07322 171.377 0.949882 170.737 0.949882H167.827L168.427 0.379883V7.37988Z" fill="#5D5D5D"/>
</svg>
