<svg width="194" height="93" viewBox="0 0 194 93" fill="none" xmlns="http://www.w3.org/2000/svg">
<path d="M39.4944 20.6387C40.9507 19.3446 38.318 18.0667 37.3008 19.1046C36.5958 19.6641 36.8375 20.8561 37.4378 21.3945C38.4188 22.5994 40.0706 22.6723 41.3758 22.6512C51.0325 22.6446 60.5622 22.4159 70.0456 22.3622C89.1896 22.0528 108.276 21.7277 127.305 21.3869C138.14 21.137 148.928 21.0623 159.763 20.8124C159.363 20.4534 158.978 20.0361 158.609 19.5604C156.676 42.3132 154.57 65.019 152.511 87.5496C152.865 87.1452 153.293 86.6982 153.794 86.2084C129.913 87.1093 106.091 88.0258 82.3258 88.9581C70.532 89.3231 58.6456 90.0385 46.8981 90.2284C44.4608 90.3176 41.5501 90.0906 40.7664 87.4374C39.9364 84.9595 40.1115 82.1912 39.8476 79.6791C39.4511 73.6896 39.0702 67.6416 38.7046 61.5353C37.7895 48.1464 37.094 34.6294 35.7861 21.3215C35.2007 21.6632 34.542 22.0475 33.8101 22.4746C51.8124 30.9284 69.3172 40.5612 86.0587 51.6763C90.8233 54.7218 95.484 57.9268 100.04 61.2913C100.514 61.6076 101.299 61.4454 101.565 61.1421C114.257 48.2557 128.576 36.9375 144.038 27.6189C148.429 25.0566 152.92 22.5839 157.511 20.201C158.828 19.4323 157.686 17.4327 156.196 18.1544C140.1 26.3622 124.799 36.4754 111.207 48.5542C107.324 52.0053 103.525 55.6044 99.8107 59.3517C100.334 59.2436 100.843 59.1939 101.336 59.2025C85.1258 47.4809 67.9796 37.1945 50.4285 27.7369C45.4248 25.127 40.3479 22.5599 35.1979 20.0355C34.3781 19.6252 32.9338 20.1718 33.0024 21.3167C33.8026 33.7358 34.6027 46.1549 35.6225 58.446C35.9572 64.669 36.3497 70.9078 36.7998 77.1623C37.1444 80.0716 37.0961 83.0621 37.6139 86.0185C37.7973 88.1332 38.5468 90.2139 40.4403 91.4788C42.2875 92.9189 45.0249 93.0988 47.289 92.9626C50.3923 92.929 53.5112 92.8371 56.6454 92.6868C62.7676 92.4715 68.9052 92.1979 75.0582 91.8659C87.3026 91.4355 99.6201 90.9623 112.011 90.4465C125.88 89.9565 139.765 89.4082 153.665 88.8016C154.404 88.8145 154.936 88.208 154.948 87.4604C157.007 64.9298 158.94 42.177 161 19.6463C161.012 18.8987 160.412 18.3603 159.672 18.3474C127.36 18.8365 95.0747 19.458 62.8161 20.2119C58.3188 20.3677 53.8215 20.5234 49.3242 20.6791C46.9755 20.6673 44.6114 20.7138 42.2319 20.8187C41.3194 20.7587 40.3606 20.8739 39.4481 20.8139C39.2748 20.7668 38.7551 20.6257 38.6282 20.4036C38.228 20.0446 38.2012 19.9122 38.5477 20.0063C38.7787 20.069 38.8672 19.9679 38.8135 19.703C38.1085 20.2625 39.009 21.0701 39.4944 20.6387Z" fill="black"/>
<path d="M81.0933 49.3898C81.6713 48.6081 82.2957 47.6513 83.0471 46.9166C83.5788 46.3101 82.8174 44.9771 81.9391 45.4895C80.0901 46.8648 78.3679 48.4622 76.6457 50.0596C74.7349 51.6684 72.8818 53.2928 71.0864 54.933C67.5575 57.9797 64.0709 61.1005 60.6265 64.2953C53.6761 70.9185 46.8679 77.7055 40.2022 84.6563C39.185 85.6942 40.8127 87.2624 41.8299 86.2244C48.3493 79.3591 55.0687 72.6732 61.9883 66.1667C65.4635 62.8551 68.9078 59.6603 72.3212 56.5822C74.0011 54.9107 75.7233 53.3133 77.4878 51.79C79.3832 50.2396 81.2786 48.6892 83.0471 46.9166C82.5005 46.6431 82.0116 46.3853 81.5806 46.1431C81.1757 46.9718 80.5514 47.9286 80.1465 48.7573C79.7417 49.586 80.7347 50.0433 81.0933 49.3898Z" fill="black"/>
<path d="M112.062 49.5374C117.567 56.1005 123.777 62.104 129.941 68.2827C135.874 74.3987 141.865 80.5303 147.914 86.6777C148.941 87.7074 150.444 86.2382 149.417 85.2084C143.368 79.061 137.377 72.9294 131.444 66.8134C125.28 60.6347 119.509 54.3749 113.032 48.6747C112.432 48.1363 111.634 49.046 112.062 49.5374Z" fill="black"/>
<path d="M2.0187 0.357931C0.656079 0.818127 0 2.19872 0 4.3463C0 6.85182 2.22057 10.8402 6.71219 16.3626C10.6487 21.2713 11.5066 21.2202 13.5758 16.158C14.4337 14.1127 15.5945 10.4823 16.2001 8.07901C17.2095 4.09064 17.2095 3.68157 16.5029 1.89192C15.7964 0.204531 15.4936 0 13.8786 0C12.0113 0 9.94212 1.63626 9.33651 3.63044C8.8823 4.9599 8.32715 4.85763 7.67107 3.32364C7.11593 2.09645 4.28975 -0.0511341 3.28039 0.0511322C3.02806 0.0511322 2.42244 0.204531 2.0187 0.357931ZM6.15705 6.44275C7.82248 9.97093 8.42809 10.7379 9.23557 10.6357C9.99258 10.5334 10.4468 9.71527 11.1029 7.41428C12.0113 3.93724 12.9197 2.04532 13.6263 2.04532C14.8375 2.04532 13.8281 7.92561 11.5571 14.0616L10.4468 17.0784L8.22622 14.5729C4.64302 10.4311 1.61496 3.63044 2.87665 2.40325C3.63367 1.58512 4.18881 2.24985 6.15705 6.44275Z" fill="black"/>
<path d="M8.67989 34.4117C8.07871 35.3511 7.92842 36.3428 8.12881 37.9607L8.4294 40.2049L5.42354 39.9961C2.81846 39.7874 2.26739 39.8917 1.16524 40.9877C-1.18935 43.2841 0.113191 46.4678 4.27129 48.6598C6.42549 49.7558 11.5855 51.1128 16.1444 51.6347L19 52V50.5387C19 48.7642 17.3969 41.6662 16.2446 38.326C14.5914 33.4723 10.5836 31.3846 8.67989 34.4117ZM14.1906 40.8312C14.892 43.0232 15.6435 45.9459 15.7938 47.3028C16.0943 49.7036 16.0943 49.808 14.8419 49.808C12.8881 49.808 6.92647 47.7725 4.87247 46.4156C2.61807 44.8499 2.067 43.3363 3.26934 41.9272C4.37149 40.6224 4.82237 40.6746 7.67793 42.2403C8.98047 42.971 10.4834 43.5451 11.0846 43.5451C11.9362 43.5451 12.0364 43.3363 11.7859 42.0838C11.6356 41.3009 11.3351 39.2655 11.1848 37.5432L10.9343 34.4117L11.9362 35.6121C12.4873 36.2384 13.4893 38.587 14.1906 40.8312Z" fill="black"/>
<path d="M184.641 10.2107C184.466 10.3868 184.334 11.2674 184.334 12.1479C184.334 15.6262 180.028 22.0985 177.392 22.6269C175.239 23.0672 175.634 23.7716 178.227 24.0358C179.896 24.2119 180.643 24.5641 181.258 25.3567C182.357 26.8096 183.016 29.5835 183.016 32.6215C183.016 35.0871 183.016 35.0871 184.246 34.955C185.344 34.8229 185.476 34.6468 185.74 32.1812C186.135 29.3193 188.332 24.1679 190.177 22.0105C190.837 21.262 191.935 20.5135 192.682 20.3814C193.385 20.2053 194 19.8971 194 19.6329C194 19.1486 193.824 19.1045 190.968 19.0165C189.211 18.9725 188.903 18.7963 188.112 17.4314C187.541 16.4628 187.102 14.7897 186.97 13.0285C186.794 10.5629 186.619 10.1666 185.872 10.0345C185.344 9.94649 184.817 10.0345 184.641 10.2107ZM186.443 18.6642C187.102 19.3687 187.893 20.0292 188.244 20.1172C188.64 20.2493 188.244 21.2179 186.706 23.5074L184.641 26.6775L183.587 25.1365C183.016 24.3 182.225 23.4634 181.829 23.2433C181.214 22.847 181.346 22.5388 182.928 20.5135C183.938 19.2366 184.773 18.0038 184.773 17.8277C184.773 17.1232 185.257 17.3874 186.443 18.6642Z" fill="black"/>
</svg>
