<svg width="94" height="19" viewBox="0 0 94 19" fill="none" xmlns="http://www.w3.org/2000/svg">
<g opacity="0.4">
<path d="M4.14062 9.34375C4.14062 7.53125 5.60938 6.07812 7.42188 6.07812C8.98438 6.07812 10.2969 7.17188 10.5156 8.64062H9.15625C9 7.89062 8.25 7.35938 7.42188 7.35938C6.32812 7.35938 5.4375 8.25 5.4375 9.34375C5.4375 10.4375 6.32812 11.3281 7.42188 11.3281C8.25 11.3281 8.89062 10.7969 9.04688 10.0469H10.3906C10.1875 11.5156 8.98438 12.6094 7.42188 12.6094C5.60938 12.6094 4.14062 11.1562 4.14062 9.34375ZM7.35938 15.1719C4.15625 15.1719 1.51562 12.5625 1.53125 9.34375C1.53125 6.10938 4.15625 3.51562 7.35938 3.51562C10.5938 3.51562 13.1875 6.10938 13.1875 9.34375C13.2031 12.5625 10.5938 15.1719 7.35938 15.1719ZM7.35938 13.875C9.875 13.875 11.9062 11.8438 11.8906 9.34375C11.875 6.82812 9.85938 4.8125 7.35938 4.8125C4.875 4.8125 2.84375 6.84375 2.82812 9.34375C2.8125 11.8281 4.85938 13.875 7.35938 13.875Z" fill="black"/>
<path d="M20 14.6191H21.3083V10.0541H28.0861V8.89897H21.3083V5.33608H28.2949V4.18093H20V14.6191Z" fill="black"/>
<path d="M38.2599 4.68196C37.3785 4.22732 36.3578 4 35.198 4C34.0382 4 33.0148 4.22732 32.1287 4.68196C31.2427 5.1366 30.5533 5.76753 30.0624 6.57474C29.5707 7.38196 29.3248 8.32371 29.3248 9.4C29.3248 10.4763 29.5707 11.4069 30.0624 12.2188C30.5542 13.0306 31.2427 13.6643 32.1287 14.118C33.0148 14.5727 34.0373 14.8 35.198 14.8C36.3588 14.8 37.3785 14.5727 38.2599 14.118C39.1414 13.6634 39.828 13.0306 40.3197 12.2188C40.8115 11.4069 41.0574 10.4679 41.0574 9.4C41.0574 8.33206 40.8115 7.38196 40.3197 6.57474C39.828 5.76753 39.1414 5.1366 38.2599 4.68196ZM39.1646 11.6268C38.7934 12.2577 38.2692 12.7476 37.5919 13.0956C36.9146 13.4435 36.1166 13.617 35.198 13.617C34.2795 13.617 33.4815 13.4426 32.8042 13.0956C32.1269 12.7476 31.6008 12.2587 31.2241 11.6268C30.8483 10.9959 30.6609 10.2536 30.6609 9.4C30.6609 8.54639 30.8483 7.79021 31.2241 7.15928C31.5999 6.52835 32.126 6.04124 32.8042 5.69794C33.4815 5.35464 34.2795 5.18299 35.198 5.18299C36.1166 5.18299 36.9146 5.35464 37.5919 5.69794C38.2692 6.04124 38.7934 6.52835 39.1646 7.15928C39.5357 7.79021 39.7213 8.53711 39.7213 9.4C39.7213 10.2629 39.5357 10.9959 39.1646 11.6268Z" fill="black"/>
<path d="M48.4198 10.2351C49.1249 10.2351 49.742 10.1079 50.2708 9.85278C50.7997 9.59763 51.2144 9.2432 51.516 8.78856C51.8175 8.33392 51.9688 7.80969 51.9688 7.21588C51.9688 6.62206 51.8175 6.08392 51.516 5.62928C51.2144 5.17464 50.7988 4.82021 50.2708 4.56505C49.742 4.3099 49.1249 4.18278 48.4198 4.18278H42.9919V14.6209H44.3002V10.2369H46.6522L50.5492 14.6209H52.1775L48.2685 10.2369H48.4198V10.2351ZM44.3002 5.32216H48.378C49.0646 5.32216 49.6139 5.49196 50.0277 5.83062C50.4406 6.16928 50.6466 6.63041 50.6466 7.21495C50.6466 7.79948 50.4397 8.24948 50.0277 8.59278C49.6148 8.93608 49.0646 9.10773 48.378 9.10773H44.3002V5.32216Z" fill="black"/>
<path d="M64.5151 13.3758L59.7766 4.18093H57.8003V14.6191H59.0528V5.50124L63.8127 14.6191H65.2044L69.9643 5.48918V14.6191H71.2169V4.18093H69.2406L64.5151 13.3758Z" fill="black"/>
<path d="M77.7721 4.18093L72.6365 14.6191H74.056L75.3105 12.0304H81.7813L83.032 14.6191H84.4516L79.3169 4.18093H77.7721ZM75.8505 10.917L78.5514 5.34536L81.244 10.917H75.8505Z" fill="black"/>
<path d="M94 4.18093H92.4969L88.4246 9.26175L84.3273 4.18093H82.8241L87.7649 10.3139V14.6191H89.0732V10.3167L94 4.18093Z" fill="black"/>
</g>
</svg>
