<svg width="200" height="8" viewBox="0 0 200 8" fill="none" xmlns="http://www.w3.org/2000/svg">
<path d="M3.98 7.75988C3.43333 7.75988 2.91666 7.66655 2.43 7.47988C1.95 7.28655 1.52666 7.01655 1.16 6.66988C0.799995 6.31655 0.516662 5.90655 0.309995 5.43988C0.103328 4.96655 -4.87268e-06 4.44655 -4.87268e-06 3.87988C-4.87268e-06 3.31322 0.103328 2.79322 0.309995 2.31988C0.516662 1.84655 0.803328 1.43655 1.17 1.08988C1.53666 0.743216 1.96 0.476549 2.44 0.289883C2.92 0.0965493 3.43333 -0.000117302 3.98 -0.000117302C4.53333 -0.000117302 5.05 0.0965493 5.53 0.289883C6.01 0.476549 6.43 0.746549 6.79 1.09988C7.15666 1.44655 7.44333 1.85655 7.65 2.32988C7.85666 2.79655 7.96 3.31322 7.96 3.87988C7.96 4.44655 7.85666 4.96655 7.65 5.43988C7.44333 5.90655 7.15666 6.31655 6.79 6.66988C6.43 7.01655 6.01 7.28655 5.53 7.47988C5.05 7.66655 4.53333 7.75988 3.98 7.75988ZM3.98 7.16988C4.44666 7.16988 4.88 7.09322 5.28 6.93988C5.68666 6.77988 6.04333 6.55322 6.35 6.25988C6.65666 5.96655 6.89666 5.61988 7.07 5.21988C7.24333 4.81322 7.33 4.36655 7.33 3.87988C7.33 3.39322 7.24333 2.94988 7.07 2.54988C6.89666 2.14322 6.65666 1.79322 6.35 1.49988C6.04333 1.20655 5.68666 0.979883 5.28 0.819882C4.88 0.659882 4.44666 0.579882 3.98 0.579882C3.52 0.579882 3.08666 0.659882 2.68 0.819882C2.27333 0.979883 1.91666 1.20655 1.61 1.49988C1.30333 1.79322 1.06333 2.14322 0.889995 2.54988C0.716662 2.94988 0.629995 3.39322 0.629995 3.87988C0.629995 4.36655 0.716662 4.80988 0.889995 5.20988C1.06333 5.60988 1.30333 5.95988 1.61 6.25988C1.91666 6.55322 2.27333 6.77988 2.68 6.93988C3.08666 7.09322 3.52 7.16988 3.98 7.16988ZM6.45 4.35988C6.41 4.74655 6.28 5.08655 6.06 5.37988C5.84666 5.66655 5.56333 5.88988 5.21 6.04988C4.86333 6.20988 4.46333 6.28988 4.01 6.28988C3.50333 6.28988 3.06 6.18988 2.68 5.98988C2.3 5.78322 2.00333 5.49988 1.79 5.13988C1.58333 4.77322 1.48 4.34988 1.48 3.86988C1.48 3.38322 1.58333 2.95988 1.79 2.59988C2.00333 2.23322 2.3 1.94988 2.68 1.74988C3.06 1.54322 3.50333 1.43988 4.01 1.43988C4.45666 1.43988 4.85333 1.51988 5.2 1.67988C5.55333 1.83988 5.84 2.06655 6.06 2.35988C6.28 2.64655 6.41 2.98322 6.45 3.36988H5.67C5.60333 2.98322 5.42 2.67988 5.12 2.45988C4.82666 2.23322 4.45333 2.11988 4 2.11988C3.46666 2.11988 3.04333 2.27988 2.73 2.59988C2.41666 2.91322 2.26 3.33655 2.26 3.86988C2.26 4.39655 2.41666 4.81988 2.73 5.13988C3.04333 5.45988 3.46666 5.61988 4 5.61988C4.46 5.61988 4.83666 5.50655 5.13 5.27988C5.42333 5.05322 5.60333 4.74655 5.67 4.35988H6.45ZM12.7124 3.51988H18.0724V4.34988H12.7124V3.51988ZM18.2224 0.129882V0.959882H12.6124L13.2024 0.359882V7.62988H12.2624V0.129882H18.2224ZM23.1813 7.75988C22.348 7.75988 21.6113 7.59655 20.9713 7.26988C20.338 6.94322 19.8447 6.48988 19.4913 5.90988C19.138 5.32322 18.9613 4.64655 18.9613 3.87988C18.9613 3.10655 19.138 2.42988 19.4913 1.84988C19.8447 1.26988 20.338 0.816549 20.9713 0.489882C21.6113 0.163216 22.348 -0.000117302 23.1813 -0.000117302C24.0147 -0.000117302 24.748 0.163216 25.3813 0.489882C26.0147 0.816549 26.508 1.26988 26.8613 1.84988C27.2147 2.42988 27.3913 3.10655 27.3913 3.87988C27.3913 4.64655 27.2147 5.32322 26.8613 5.90988C26.508 6.48988 26.0147 6.94322 25.3813 7.26988C24.748 7.59655 24.0147 7.75988 23.1813 7.75988ZM23.1813 6.90988C23.8413 6.90988 24.4147 6.78655 24.9013 6.53988C25.388 6.28655 25.7647 5.93322 26.0313 5.47988C26.298 5.02655 26.4313 4.49322 26.4313 3.87988C26.4313 3.25988 26.298 2.72322 26.0313 2.26988C25.7647 1.81655 25.388 1.46655 24.9013 1.21988C24.4147 0.973216 23.8413 0.849882 23.1813 0.849882C22.5213 0.849882 21.948 0.973216 21.4613 1.21988C20.9747 1.46655 20.5947 1.81655 20.3213 2.26988C20.0547 2.72322 19.9213 3.25988 19.9213 3.87988C19.9213 4.49322 20.0547 5.02655 20.3213 5.47988C20.5947 5.93322 20.9747 6.28655 21.4613 6.53988C21.948 6.78655 22.5213 6.90988 23.1813 6.90988ZM29.4359 3.66988H32.6559C33.1492 3.66988 33.5425 3.54655 33.8359 3.29988C34.1359 3.05322 34.2859 2.72322 34.2859 2.30988C34.2859 1.88988 34.1359 1.55988 33.8359 1.31988C33.5425 1.07322 33.1492 0.949882 32.6559 0.949882H29.3059L29.7259 0.449882V7.62988H28.7859V0.129882H32.6859C33.1925 0.129882 33.6359 0.223216 34.0159 0.409882C34.3959 0.589882 34.6925 0.843216 34.9059 1.16988C35.1259 1.49655 35.2359 1.87655 35.2359 2.30988C35.2359 2.73655 35.1259 3.11322 34.9059 3.43988C34.6925 3.76655 34.3959 4.02322 34.0159 4.20988C33.6359 4.38988 33.1925 4.47988 32.6859 4.47988H29.4359V3.66988ZM31.0959 4.11988H32.2559L35.3859 7.62988H34.2159L31.0959 4.11988ZM46.3067 0.129882V7.62988H45.4067V0.349882L45.7767 0.359882L41.9867 7.62988H40.9867L37.1967 0.369883L37.5667 0.359882V7.62988H36.6667V0.129882H38.0867L41.7867 7.30988H41.1967L44.8867 0.129882H46.3067ZM48.9016 5.76988V4.96988H54.1816V5.76988H48.9016ZM52.1316 0.129882L55.8216 7.62988H54.8016L51.3316 0.449882H51.8316L48.3516 7.62988H47.3316L51.0216 0.129882H52.1316ZM58.1984 7.62988V4.07988H59.1384V7.62988H58.1984ZM54.6484 0.129882H55.7284L58.9784 4.15988H58.3684L61.5984 0.129882H62.6784L58.9684 4.74988L58.3784 4.75988L54.6484 0.129882ZM62.904 7.69988C62.784 7.69988 62.674 7.67322 62.574 7.61988C62.474 7.55988 62.394 7.47988 62.334 7.37988C62.2806 7.27988 62.254 7.16988 62.254 7.04988C62.254 6.92322 62.2806 6.81322 62.334 6.71988C62.394 6.61988 62.4706 6.54322 62.564 6.48988C62.664 6.42988 62.7773 6.39988 62.904 6.39988C63.024 6.39988 63.1306 6.42988 63.224 6.48988C63.324 6.54322 63.404 6.61988 63.464 6.71988C63.524 6.81988 63.554 6.92988 63.554 7.04988C63.554 7.16988 63.524 7.27988 63.464 7.37988C63.404 7.47322 63.324 7.54988 63.224 7.60988C63.1306 7.66988 63.024 7.69988 62.904 7.69988ZM65.7766 5.76988V4.96988H71.0566V5.76988H65.7766ZM69.0066 0.129882L72.6966 7.62988H71.6766L68.2066 0.449882H68.7066L65.2266 7.62988H64.2066L67.8966 0.129882H69.0066ZM74.6575 0.129882V7.20988L74.2375 6.79988H79.9075V7.62988H73.7175V0.129882H74.6575ZM81.8938 0.129882V7.20988L81.4738 6.79988H87.1438V7.62988H80.9538V0.129882H81.8938ZM91.2327 3.66988H94.4527C94.9461 3.66988 95.3394 3.54655 95.6327 3.29988C95.9327 3.05322 96.0827 2.72322 96.0827 2.30988C96.0827 1.88988 95.9327 1.55988 95.6327 1.31988C95.3394 1.07322 94.9461 0.949882 94.4527 0.949882H91.1027L91.5227 0.449882V7.62988H90.5827V0.129882H94.4827C94.9894 0.129882 95.4327 0.223216 95.8127 0.409882C96.1927 0.589882 96.4894 0.843216 96.7027 1.16988C96.9227 1.49655 97.0327 1.87655 97.0327 2.30988C97.0327 2.73655 96.9227 3.11322 96.7027 3.43988C96.4894 3.76655 96.1927 4.02322 95.8127 4.20988C95.4327 4.38988 94.9894 4.47988 94.4827 4.47988H91.2327V3.66988ZM92.8927 4.11988H94.0527L97.1827 7.62988H96.0127L92.8927 4.11988ZM98.4636 0.129882H99.4036V7.62988H98.4636V0.129882ZM108.647 4.35988C108.641 4.83322 108.547 5.27655 108.367 5.68988C108.194 6.10322 107.944 6.46655 107.617 6.77988C107.297 7.08655 106.907 7.32655 106.447 7.49988C105.994 7.67322 105.484 7.75988 104.917 7.75988C104.317 7.75988 103.764 7.66988 103.257 7.48988C102.757 7.30322 102.321 7.03988 101.947 6.69988C101.581 6.35988 101.297 5.95322 101.097 5.47988C100.897 4.99988 100.797 4.46655 100.797 3.87988C100.797 3.29322 100.897 2.76322 101.097 2.28988C101.304 1.80988 101.594 1.39988 101.967 1.05988C102.341 0.719883 102.781 0.459883 103.287 0.279883C103.794 0.093216 104.354 -0.000117302 104.967 -0.000117302C105.701 -0.000117302 106.347 0.123216 106.907 0.369883C107.474 0.616549 107.931 0.956549 108.277 1.38988C108.624 1.81655 108.831 2.30655 108.897 2.85988H107.937C107.864 2.45322 107.694 2.09988 107.427 1.79988C107.161 1.49322 106.817 1.25655 106.397 1.08988C105.984 0.923216 105.501 0.839883 104.947 0.839883C104.301 0.839883 103.737 0.963216 103.257 1.20988C102.784 1.45655 102.414 1.80655 102.147 2.25988C101.887 2.71322 101.757 3.25322 101.757 3.87988C101.757 4.49988 101.891 5.03988 102.157 5.49988C102.424 5.95988 102.801 6.31322 103.287 6.55988C103.774 6.80655 104.344 6.92988 104.997 6.92988C105.637 6.92988 106.194 6.81322 106.667 6.57988C107.147 6.34655 107.521 6.02655 107.787 5.61988C108.054 5.21322 108.194 4.74655 108.207 4.21988L108.647 4.35988ZM105.367 4.76988V4.01988H108.987V7.62988H108.257L108.167 4.44988L108.427 4.76988H105.367ZM110.544 0.129882H111.484V7.62988H110.544V0.129882ZM116.744 0.129882H117.684V7.62988H116.744V0.129882ZM111.024 3.44988H117.254V4.27988H111.024V3.44988ZM121.949 0.579882H122.889V7.62988H121.949V0.579882ZM118.729 0.129882H126.109V0.959882H118.729V0.129882ZM126.362 5.19988H127.312C127.359 5.55322 127.499 5.86322 127.732 6.12988C127.965 6.39655 128.272 6.60322 128.652 6.74988C129.039 6.88988 129.482 6.95988 129.982 6.95988C130.735 6.95988 131.332 6.83322 131.772 6.57988C132.219 6.31988 132.442 5.96988 132.442 5.52988C132.442 5.18988 132.302 4.92988 132.022 4.74988C131.749 4.56988 131.269 4.43988 130.582 4.35988L129.132 4.17988C128.219 4.07322 127.562 3.85655 127.162 3.52988C126.762 3.19655 126.562 2.74988 126.562 2.18988C126.562 1.74322 126.695 1.35655 126.962 1.02988C127.229 0.696549 127.602 0.443216 128.082 0.269882C128.569 0.0898825 129.135 -0.000117302 129.782 -0.000117302C130.429 -0.000117302 131.002 0.0998826 131.502 0.299882C132.009 0.493216 132.409 0.766549 132.702 1.11988C133.002 1.46655 133.165 1.87655 133.192 2.34988H132.242C132.202 2.02988 132.075 1.75655 131.862 1.52988C131.649 1.29655 131.362 1.11655 131.002 0.989882C130.649 0.856549 130.235 0.789883 129.762 0.789883C129.075 0.789883 128.525 0.913216 128.112 1.15988C127.705 1.39988 127.502 1.73655 127.502 2.16988C127.502 2.50322 127.635 2.75988 127.902 2.93988C128.175 3.11322 128.635 3.23988 129.282 3.31988L130.702 3.50988C131.362 3.58988 131.885 3.70655 132.272 3.85988C132.665 4.01322 132.949 4.21988 133.122 4.47988C133.295 4.73322 133.382 5.05655 133.382 5.44988C133.382 5.92322 133.239 6.33322 132.952 6.67988C132.672 7.02655 132.275 7.29322 131.762 7.47988C131.249 7.66655 130.652 7.75988 129.972 7.75988C129.285 7.75988 128.675 7.65322 128.142 7.43988C127.609 7.21988 127.185 6.91988 126.872 6.53988C126.559 6.15322 126.389 5.70655 126.362 5.19988ZM138.137 3.66988H141.357C141.85 3.66988 142.244 3.54655 142.537 3.29988C142.837 3.05322 142.987 2.72322 142.987 2.30988C142.987 1.88988 142.837 1.55988 142.537 1.31988C142.244 1.07322 141.85 0.949882 141.357 0.949882H138.007L138.427 0.449882V7.62988H137.487V0.129882H141.387C141.894 0.129882 142.337 0.223216 142.717 0.409882C143.097 0.589882 143.394 0.843216 143.607 1.16988C143.827 1.49655 143.937 1.87655 143.937 2.30988C143.937 2.73655 143.827 3.11322 143.607 3.43988C143.394 3.76655 143.097 4.02322 142.717 4.20988C142.337 4.38988 141.894 4.47988 141.387 4.47988H138.137V3.66988ZM139.797 4.11988H140.957L144.087 7.62988H142.917L139.797 4.11988ZM151.148 3.47988V4.27988H146.038V3.47988H151.148ZM146.628 3.87988L146.058 7.39988L145.558 6.80988H151.418V7.62988H145.098L145.718 3.87988L145.098 0.129882H151.368V0.949882H145.558L146.058 0.359882L146.628 3.87988ZM152.358 5.19988H153.308C153.355 5.55322 153.495 5.86322 153.728 6.12988C153.961 6.39655 154.268 6.60322 154.648 6.74988C155.035 6.88988 155.478 6.95988 155.978 6.95988C156.731 6.95988 157.328 6.83322 157.768 6.57988C158.215 6.31988 158.438 5.96988 158.438 5.52988C158.438 5.18988 158.298 4.92988 158.018 4.74988C157.745 4.56988 157.265 4.43988 156.578 4.35988L155.128 4.17988C154.215 4.07322 153.558 3.85655 153.158 3.52988C152.758 3.19655 152.558 2.74988 152.558 2.18988C152.558 1.74322 152.691 1.35655 152.958 1.02988C153.225 0.696549 153.598 0.443216 154.078 0.269882C154.565 0.0898825 155.131 -0.000117302 155.778 -0.000117302C156.425 -0.000117302 156.998 0.0998826 157.498 0.299882C158.005 0.493216 158.405 0.766549 158.698 1.11988C158.998 1.46655 159.161 1.87655 159.188 2.34988H158.238C158.198 2.02988 158.071 1.75655 157.858 1.52988C157.645 1.29655 157.358 1.11655 156.998 0.989882C156.645 0.856549 156.231 0.789883 155.758 0.789883C155.071 0.789883 154.521 0.913216 154.108 1.15988C153.701 1.39988 153.498 1.73655 153.498 2.16988C153.498 2.50322 153.631 2.75988 153.898 2.93988C154.171 3.11322 154.631 3.23988 155.278 3.31988L156.698 3.50988C157.358 3.58988 157.881 3.70655 158.268 3.85988C158.661 4.01322 158.945 4.21988 159.118 4.47988C159.291 4.73322 159.378 5.05655 159.378 5.44988C159.378 5.92322 159.235 6.33322 158.948 6.67988C158.668 7.02655 158.271 7.29322 157.758 7.47988C157.245 7.66655 156.648 7.75988 155.968 7.75988C155.281 7.75988 154.671 7.65322 154.138 7.43988C153.605 7.21988 153.181 6.91988 152.868 6.53988C152.555 6.15322 152.385 5.70655 152.358 5.19988ZM166.499 3.47988V4.27988H161.389V3.47988H166.499ZM161.979 3.87988L161.409 7.39988L160.909 6.80988H166.769V7.62988H160.449L161.069 3.87988L160.449 0.129882H166.719V0.949882H160.909L161.409 0.359882L161.979 3.87988ZM168.879 3.66988H172.099C172.593 3.66988 172.986 3.54655 173.279 3.29988C173.579 3.05322 173.729 2.72322 173.729 2.30988C173.729 1.88988 173.579 1.55988 173.279 1.31988C172.986 1.07322 172.593 0.949882 172.099 0.949882H168.749L169.169 0.449882V7.62988H168.229V0.129882H172.129C172.636 0.129882 173.079 0.223216 173.459 0.409882C173.839 0.589882 174.136 0.843216 174.349 1.16988C174.569 1.49655 174.679 1.87655 174.679 2.30988C174.679 2.73655 174.569 3.11322 174.349 3.43988C174.136 3.76655 173.839 4.02322 173.459 4.20988C173.079 4.38988 172.636 4.47988 172.129 4.47988H168.879V3.66988ZM170.539 4.11988H171.699L174.829 7.62988H173.659L170.539 4.11988ZM179.419 7.25988H178.929L182.339 0.129882H183.359L179.669 7.62988H178.649L174.959 0.129882H175.979L179.419 7.25988ZM190.162 3.47988V4.27988H185.052V3.47988H190.162ZM185.642 3.87988L185.072 7.39988L184.572 6.80988H190.432V7.62988H184.112L184.732 3.87988L184.112 0.129882H190.382V0.949882H184.572L185.072 0.359882L185.642 3.87988ZM195.101 0.129882C195.935 0.129882 196.668 0.286549 197.301 0.599883C197.935 0.913216 198.428 1.35322 198.781 1.91988C199.135 2.47988 199.311 3.13322 199.311 3.87988C199.311 4.61988 199.135 5.27322 198.781 5.83988C198.428 6.39988 197.935 6.83988 197.301 7.15988C196.668 7.47322 195.935 7.62988 195.101 7.62988H191.891V0.129882H195.101ZM192.831 7.37988L192.231 6.79988H195.141C195.781 6.79988 196.341 6.67655 196.821 6.42988C197.301 6.18322 197.675 5.83988 197.941 5.39988C198.215 4.95988 198.351 4.45322 198.351 3.87988C198.351 3.29322 198.215 2.78322 197.941 2.34988C197.675 1.90988 197.301 1.56655 196.821 1.31988C196.341 1.07322 195.781 0.949882 195.141 0.949882H192.231L192.831 0.379883V7.37988Z" fill="#5D5D5D"/>
</svg>
