<svg width="57" height="17" viewBox="0 0 57 17" fill="none" xmlns="http://www.w3.org/2000/svg">
<path d="M7.02246 4.04688V5.12695H2.71582V11.1016C4.77344 11.0879 6.1748 11.0127 7.78809 10.7051L7.93848 11.7715C6.1748 12.1064 4.68457 12.1816 2.37402 12.1816H1.40332V4.04688H7.02246ZM6.3252 8.36719V7.28711H9.72949V2.91211H11.0283V15.1895H9.72949V8.36719H6.3252ZM24.1123 12.5645V13.6445H12.9014V12.5645H17.8369V10.0488H14.1865V3.74609H15.4854V5.85156H21.501V3.74609H22.7861V10.0488H19.1221V12.5645H24.1123ZM15.4854 8.99609H21.501V6.9043H15.4854V8.99609ZM35.1865 2.91211V15.1621H33.874V2.91211H35.1865ZM25.124 11.8809C28.3779 10.3291 29.9707 8.12109 30.2236 5.26367H25.7119V4.22461H31.5361C31.5361 7.81348 30.0117 10.917 25.8076 12.9336L25.124 11.8809Z" fill="black"/>
<path d="M49 5L49 13M53 9L45 9" stroke="black" stroke-width="1.2" stroke-linecap="round"/>
</svg>
