<svg width="201" height="12" viewBox="0 0 201 12" fill="none" xmlns="http://www.w3.org/2000/svg">
<g opacity="0.4">
<path d="M4.90004 10.13C4.35337 10.13 3.83671 10.0367 3.35004 9.85C2.87004 9.65667 2.44671 9.38667 2.08004 9.04C1.72004 8.68667 1.43671 8.27667 1.23004 7.81C1.02337 7.33667 0.920039 6.81667 0.920039 6.25C0.920039 5.68333 1.02337 5.16333 1.23004 4.69C1.43671 4.21667 1.72337 3.80667 2.09004 3.46C2.45671 3.11333 2.88004 2.84667 3.36004 2.66C3.84004 2.46667 4.35337 2.37 4.90004 2.37C5.45337 2.37 5.97004 2.46667 6.45004 2.66C6.93004 2.84667 7.35004 3.11667 7.71004 3.47C8.07671 3.81667 8.36337 4.22667 8.57004 4.7C8.77671 5.16667 8.88004 5.68333 8.88004 6.25C8.88004 6.81667 8.77671 7.33667 8.57004 7.81C8.36337 8.27667 8.07671 8.68667 7.71004 9.04C7.35004 9.38667 6.93004 9.65667 6.45004 9.85C5.97004 10.0367 5.45337 10.13 4.90004 10.13ZM4.90004 9.54C5.36671 9.54 5.80004 9.46333 6.20004 9.31C6.60671 9.15 6.96337 8.92333 7.27004 8.63C7.57671 8.33667 7.81671 7.99 7.99004 7.59C8.16337 7.18333 8.25004 6.73667 8.25004 6.25C8.25004 5.76333 8.16337 5.32 7.99004 4.92C7.81671 4.51333 7.57671 4.16333 7.27004 3.87C6.96337 3.57667 6.60671 3.35 6.20004 3.19C5.80004 3.03 5.36671 2.95 4.90004 2.95C4.44004 2.95 4.00671 3.03 3.60004 3.19C3.19337 3.35 2.83671 3.57667 2.53004 3.87C2.22337 4.16333 1.98337 4.51333 1.81004 4.92C1.63671 5.32 1.55004 5.76333 1.55004 6.25C1.55004 6.73667 1.63671 7.18 1.81004 7.58C1.98337 7.98 2.22337 8.33 2.53004 8.63C2.83671 8.92333 3.19337 9.15 3.60004 9.31C4.00671 9.46333 4.44004 9.54 4.90004 9.54ZM7.37004 6.73C7.33004 7.11667 7.20004 7.45667 6.98004 7.75C6.76671 8.03667 6.48337 8.26 6.13004 8.42C5.78337 8.58 5.38337 8.66 4.93004 8.66C4.42337 8.66 3.98004 8.56 3.60004 8.36C3.22004 8.15333 2.92337 7.87 2.71004 7.51C2.50337 7.14333 2.40004 6.72 2.40004 6.24C2.40004 5.75333 2.50337 5.33 2.71004 4.97C2.92337 4.60333 3.22004 4.32 3.60004 4.12C3.98004 3.91333 4.42337 3.81 4.93004 3.81C5.37671 3.81 5.77337 3.89 6.12004 4.05C6.47337 4.21 6.76004 4.43667 6.98004 4.73C7.20004 5.01667 7.33004 5.35333 7.37004 5.74H6.59004C6.52337 5.35333 6.34004 5.05 6.04004 4.83C5.74671 4.60333 5.37337 4.49 4.92004 4.49C4.38671 4.49 3.96337 4.65 3.65004 4.97C3.33671 5.28333 3.18004 5.70667 3.18004 6.24C3.18004 6.76667 3.33671 7.19 3.65004 7.51C3.96337 7.83 4.38671 7.99 4.92004 7.99C5.38004 7.99 5.75671 7.87667 6.05004 7.65C6.34337 7.42333 6.52337 7.11667 6.59004 6.73H7.37004ZM13.6325 5.89H18.9925V6.72H13.6325V5.89ZM19.1425 2.5V3.33H13.5325L14.1225 2.73V10H13.1825V2.5H19.1425ZM24.1014 10.13C23.268 10.13 22.5314 9.96667 21.8914 9.64C21.258 9.31333 20.7647 8.86 20.4114 8.28C20.058 7.69333 19.8814 7.01667 19.8814 6.25C19.8814 5.47667 20.058 4.8 20.4114 4.22C20.7647 3.64 21.258 3.18667 21.8914 2.86C22.5314 2.53333 23.268 2.37 24.1014 2.37C24.9347 2.37 25.668 2.53333 26.3014 2.86C26.9347 3.18667 27.428 3.64 27.7814 4.22C28.1347 4.8 28.3114 5.47667 28.3114 6.25C28.3114 7.01667 28.1347 7.69333 27.7814 8.28C27.428 8.86 26.9347 9.31333 26.3014 9.64C25.668 9.96667 24.9347 10.13 24.1014 10.13ZM24.1014 9.28C24.7614 9.28 25.3347 9.15667 25.8214 8.91C26.308 8.65667 26.6847 8.30333 26.9514 7.85C27.218 7.39667 27.3514 6.86333 27.3514 6.25C27.3514 5.63 27.218 5.09333 26.9514 4.64C26.6847 4.18667 26.308 3.83667 25.8214 3.59C25.3347 3.34333 24.7614 3.22 24.1014 3.22C23.4414 3.22 22.868 3.34333 22.3814 3.59C21.8947 3.83667 21.5147 4.18667 21.2414 4.64C20.9747 5.09333 20.8414 5.63 20.8414 6.25C20.8414 6.86333 20.9747 7.39667 21.2414 7.85C21.5147 8.30333 21.8947 8.65667 22.3814 8.91C22.868 9.15667 23.4414 9.28 24.1014 9.28ZM30.3559 6.04H33.5759C34.0692 6.04 34.4626 5.91667 34.7559 5.67C35.0559 5.42333 35.2059 5.09333 35.2059 4.68C35.2059 4.26 35.0559 3.93 34.7559 3.69C34.4626 3.44333 34.0692 3.32 33.5759 3.32H30.2259L30.6459 2.82V10H29.7059V2.5H33.6059C34.1126 2.5 34.5559 2.59333 34.9359 2.78C35.3159 2.96 35.6126 3.21333 35.8259 3.54C36.0459 3.86667 36.1559 4.24667 36.1559 4.68C36.1559 5.10667 36.0459 5.48333 35.8259 5.81C35.6126 6.13667 35.3159 6.39333 34.9359 6.58C34.5559 6.76 34.1126 6.85 33.6059 6.85H30.3559V6.04ZM32.0159 6.49H33.1759L36.3059 10H35.1359L32.0159 6.49ZM47.2268 2.5V10H46.3268V2.72L46.6968 2.73L42.9068 10H41.9068L38.1168 2.74L38.4868 2.73V10H37.5868V2.5H39.0068L42.7068 9.68H42.1168L45.8068 2.5H47.2268ZM49.8216 8.14V7.34H55.1016V8.14H49.8216ZM53.0516 2.5L56.7416 10H55.7216L52.2516 2.82H52.7516L49.2716 10H48.2516L51.9416 2.5H53.0516ZM59.1184 10V6.45H60.0584V10H59.1184ZM55.5684 2.5H56.6484L59.8984 6.53H59.2884L62.5184 2.5H63.5984L59.8884 7.12L59.2984 7.13L55.5684 2.5ZM63.824 10.07C63.704 10.07 63.594 10.0433 63.494 9.99C63.394 9.93 63.314 9.85 63.254 9.75C63.2007 9.65 63.174 9.54 63.174 9.42C63.174 9.29333 63.2007 9.18333 63.254 9.09C63.314 8.99 63.3907 8.91333 63.484 8.86C63.584 8.8 63.6974 8.77 63.824 8.77C63.944 8.77 64.0507 8.8 64.144 8.86C64.244 8.91333 64.324 8.99 64.384 9.09C64.444 9.19 64.474 9.3 64.474 9.42C64.474 9.54 64.444 9.65 64.384 9.75C64.324 9.84333 64.244 9.92 64.144 9.98C64.0507 10.04 63.944 10.07 63.824 10.07ZM66.6966 8.14V7.34H71.9766V8.14H66.6966ZM69.9266 2.5L73.6166 10H72.5966L69.1266 2.82H69.6266L66.1466 10H65.1266L68.8166 2.5H69.9266ZM75.5775 2.5V9.58L75.1575 9.17H80.8275V10H74.6375V2.5H75.5775ZM82.8139 2.5V9.58L82.3939 9.17H88.0639V10H81.8739V2.5H82.8139ZM92.1528 6.04H95.3728C95.8661 6.04 96.2594 5.91667 96.5528 5.67C96.8528 5.42333 97.0028 5.09333 97.0028 4.68C97.0028 4.26 96.8528 3.93 96.5528 3.69C96.2594 3.44333 95.8661 3.32 95.3728 3.32H92.0228L92.4428 2.82V10H91.5028V2.5H95.4028C95.9094 2.5 96.3528 2.59333 96.7328 2.78C97.1128 2.96 97.4094 3.21333 97.6228 3.54C97.8428 3.86667 97.9528 4.24667 97.9528 4.68C97.9528 5.10667 97.8428 5.48333 97.6228 5.81C97.4094 6.13667 97.1128 6.39333 96.7328 6.58C96.3528 6.76 95.9094 6.85 95.4028 6.85H92.1528V6.04ZM93.8128 6.49H94.9728L98.1028 10H96.9328L93.8128 6.49ZM99.3836 2.5H100.324V10H99.3836V2.5ZM109.568 6.73C109.561 7.20333 109.468 7.64667 109.288 8.06C109.114 8.47333 108.864 8.83667 108.538 9.15C108.218 9.45667 107.828 9.69667 107.368 9.87C106.914 10.0433 106.404 10.13 105.838 10.13C105.238 10.13 104.684 10.04 104.178 9.86C103.678 9.67333 103.241 9.41 102.868 9.07C102.501 8.73 102.218 8.32333 102.018 7.85C101.818 7.37 101.718 6.83667 101.718 6.25C101.718 5.66333 101.818 5.13333 102.018 4.66C102.224 4.18 102.514 3.77 102.888 3.43C103.261 3.09 103.701 2.83 104.208 2.65C104.714 2.46333 105.274 2.37 105.888 2.37C106.621 2.37 107.268 2.49333 107.828 2.74C108.394 2.98667 108.851 3.32667 109.198 3.76C109.544 4.18667 109.751 4.67667 109.818 5.23H108.858C108.784 4.82333 108.614 4.47 108.348 4.17C108.081 3.86333 107.738 3.62667 107.318 3.46C106.904 3.29333 106.421 3.21 105.868 3.21C105.221 3.21 104.658 3.33333 104.178 3.58C103.704 3.82667 103.334 4.17667 103.068 4.63C102.808 5.08333 102.678 5.62333 102.678 6.25C102.678 6.87 102.811 7.41 103.078 7.87C103.344 8.33 103.721 8.68333 104.208 8.93C104.694 9.17667 105.264 9.3 105.918 9.3C106.558 9.3 107.114 9.18333 107.588 8.95C108.068 8.71667 108.441 8.39667 108.708 7.99C108.974 7.58333 109.114 7.11667 109.128 6.59L109.568 6.73ZM106.288 7.14V6.39H109.908V10H109.178L109.088 6.82L109.348 7.14H106.288ZM111.464 2.5H112.404V10H111.464V2.5ZM117.664 2.5H118.604V10H117.664V2.5ZM111.944 5.82H118.174V6.65H111.944V5.82ZM122.869 2.95H123.809V10H122.869V2.95ZM119.649 2.5H127.029V3.33H119.649V2.5ZM127.282 7.57H128.232C128.279 7.92333 128.419 8.23333 128.652 8.5C128.885 8.76667 129.192 8.97333 129.572 9.12C129.959 9.26 130.402 9.33 130.902 9.33C131.655 9.33 132.252 9.20333 132.692 8.95C133.139 8.69 133.362 8.34 133.362 7.9C133.362 7.56 133.222 7.3 132.942 7.12C132.669 6.94 132.189 6.81 131.502 6.73L130.052 6.55C129.139 6.44333 128.482 6.22667 128.082 5.9C127.682 5.56667 127.482 5.12 127.482 4.56C127.482 4.11333 127.615 3.72667 127.882 3.4C128.149 3.06667 128.522 2.81333 129.002 2.64C129.489 2.46 130.055 2.37 130.702 2.37C131.349 2.37 131.922 2.47 132.422 2.67C132.929 2.86333 133.329 3.13667 133.622 3.49C133.922 3.83667 134.085 4.24667 134.112 4.72H133.162C133.122 4.4 132.995 4.12667 132.782 3.9C132.569 3.66667 132.282 3.48667 131.922 3.36C131.569 3.22667 131.155 3.16 130.682 3.16C129.995 3.16 129.445 3.28333 129.032 3.53C128.625 3.77 128.422 4.10667 128.422 4.54C128.422 4.87333 128.555 5.13 128.822 5.31C129.095 5.48333 129.555 5.61 130.202 5.69L131.622 5.88C132.282 5.96 132.805 6.07667 133.192 6.23C133.585 6.38333 133.869 6.59 134.042 6.85C134.215 7.10333 134.302 7.42667 134.302 7.82C134.302 8.29333 134.159 8.70333 133.872 9.05C133.592 9.39667 133.195 9.66333 132.682 9.85C132.169 10.0367 131.572 10.13 130.892 10.13C130.205 10.13 129.595 10.0233 129.062 9.81C128.529 9.59 128.105 9.29 127.792 8.91C127.479 8.52333 127.309 8.07667 127.282 7.57ZM139.057 6.04H142.277C142.77 6.04 143.164 5.91667 143.457 5.67C143.757 5.42333 143.907 5.09333 143.907 4.68C143.907 4.26 143.757 3.93 143.457 3.69C143.164 3.44333 142.77 3.32 142.277 3.32H138.927L139.347 2.82V10H138.407V2.5H142.307C142.814 2.5 143.257 2.59333 143.637 2.78C144.017 2.96 144.314 3.21333 144.527 3.54C144.747 3.86667 144.857 4.24667 144.857 4.68C144.857 5.10667 144.747 5.48333 144.527 5.81C144.314 6.13667 144.017 6.39333 143.637 6.58C143.257 6.76 142.814 6.85 142.307 6.85H139.057V6.04ZM140.717 6.49H141.877L145.007 10H143.837L140.717 6.49ZM152.068 5.85V6.65H146.958V5.85H152.068ZM147.548 6.25L146.978 9.77L146.478 9.18H152.338V10H146.018L146.638 6.25L146.018 2.5H152.288V3.32H146.478L146.978 2.73L147.548 6.25ZM153.278 7.57H154.228C154.275 7.92333 154.415 8.23333 154.648 8.5C154.881 8.76667 155.188 8.97333 155.568 9.12C155.955 9.26 156.398 9.33 156.898 9.33C157.651 9.33 158.248 9.20333 158.688 8.95C159.135 8.69 159.358 8.34 159.358 7.9C159.358 7.56 159.218 7.3 158.938 7.12C158.665 6.94 158.185 6.81 157.498 6.73L156.048 6.55C155.135 6.44333 154.478 6.22667 154.078 5.9C153.678 5.56667 153.478 5.12 153.478 4.56C153.478 4.11333 153.611 3.72667 153.878 3.4C154.145 3.06667 154.518 2.81333 154.998 2.64C155.485 2.46 156.051 2.37 156.698 2.37C157.345 2.37 157.918 2.47 158.418 2.67C158.925 2.86333 159.325 3.13667 159.618 3.49C159.918 3.83667 160.081 4.24667 160.108 4.72H159.158C159.118 4.4 158.991 4.12667 158.778 3.9C158.565 3.66667 158.278 3.48667 157.918 3.36C157.565 3.22667 157.151 3.16 156.678 3.16C155.991 3.16 155.441 3.28333 155.028 3.53C154.621 3.77 154.418 4.10667 154.418 4.54C154.418 4.87333 154.551 5.13 154.818 5.31C155.091 5.48333 155.551 5.61 156.198 5.69L157.618 5.88C158.278 5.96 158.801 6.07667 159.188 6.23C159.581 6.38333 159.865 6.59 160.038 6.85C160.211 7.10333 160.298 7.42667 160.298 7.82C160.298 8.29333 160.155 8.70333 159.868 9.05C159.588 9.39667 159.191 9.66333 158.678 9.85C158.165 10.0367 157.568 10.13 156.888 10.13C156.201 10.13 155.591 10.0233 155.058 9.81C154.525 9.59 154.101 9.29 153.788 8.91C153.475 8.52333 153.305 8.07667 153.278 7.57ZM167.419 5.85V6.65H162.309V5.85H167.419ZM162.899 6.25L162.329 9.77L161.829 9.18H167.689V10H161.369L161.989 6.25L161.369 2.5H167.639V3.32H161.829L162.329 2.73L162.899 6.25ZM169.799 6.04H173.019C173.513 6.04 173.906 5.91667 174.199 5.67C174.499 5.42333 174.649 5.09333 174.649 4.68C174.649 4.26 174.499 3.93 174.199 3.69C173.906 3.44333 173.513 3.32 173.019 3.32H169.669L170.089 2.82V10H169.149V2.5H173.049C173.556 2.5 173.999 2.59333 174.379 2.78C174.759 2.96 175.056 3.21333 175.269 3.54C175.489 3.86667 175.599 4.24667 175.599 4.68C175.599 5.10667 175.489 5.48333 175.269 5.81C175.056 6.13667 174.759 6.39333 174.379 6.58C173.999 6.76 173.556 6.85 173.049 6.85H169.799V6.04ZM171.459 6.49H172.619L175.749 10H174.579L171.459 6.49ZM180.339 9.63H179.849L183.259 2.5H184.279L180.589 10H179.569L175.879 2.5H176.899L180.339 9.63ZM191.082 5.85V6.65H185.972V5.85H191.082ZM186.562 6.25L185.992 9.77L185.492 9.18H191.352V10H185.032L185.652 6.25L185.032 2.5H191.302V3.32H185.492L185.992 2.73L186.562 6.25ZM196.021 2.5C196.855 2.5 197.588 2.65667 198.221 2.97C198.855 3.28333 199.348 3.72333 199.701 4.29C200.055 4.85 200.231 5.50333 200.231 6.25C200.231 6.99 200.055 7.64333 199.701 8.21C199.348 8.77 198.855 9.21 198.221 9.53C197.588 9.84333 196.855 10 196.021 10H192.811V2.5H196.021ZM193.751 9.75L193.151 9.17H196.061C196.701 9.17 197.261 9.04667 197.741 8.8C198.221 8.55333 198.595 8.21 198.861 7.77C199.135 7.33 199.271 6.82333 199.271 6.25C199.271 5.66333 199.135 5.15333 198.861 4.72C198.595 4.28 198.221 3.93667 197.741 3.69C197.261 3.44333 196.701 3.32 196.061 3.32H193.151L193.751 2.75V9.75Z" fill="#5D5D5D"/>
</g>
</svg>
