<svg width="177" height="12" viewBox="0 0 177 12" fill="none" xmlns="http://www.w3.org/2000/svg">
<g opacity="0.4">
<path d="M5.10219 10.13C4.55552 10.13 4.03885 10.0367 3.55219 9.85C3.07219 9.65667 2.64885 9.38667 2.28219 9.04C1.92219 8.68667 1.63885 8.27667 1.43219 7.81C1.22552 7.33667 1.12219 6.81667 1.12219 6.25C1.12219 5.68333 1.22552 5.16333 1.43219 4.69C1.63885 4.21667 1.92552 3.80667 2.29219 3.46C2.65885 3.11333 3.08219 2.84667 3.56219 2.66C4.04219 2.46667 4.55552 2.37 5.10219 2.37C5.65552 2.37 6.17219 2.46667 6.65219 2.66C7.13219 2.84667 7.55219 3.11667 7.91219 3.47C8.27885 3.81667 8.56552 4.22667 8.77219 4.7C8.97885 5.16667 9.08219 5.68333 9.08219 6.25C9.08219 6.81667 8.97885 7.33667 8.77219 7.81C8.56552 8.27667 8.27885 8.68667 7.91219 9.04C7.55219 9.38667 7.13219 9.65667 6.65219 9.85C6.17219 10.0367 5.65552 10.13 5.10219 10.13ZM5.10219 9.54C5.56885 9.54 6.00219 9.46333 6.40219 9.31C6.80885 9.15 7.16552 8.92333 7.47219 8.63C7.77885 8.33667 8.01885 7.99 8.19219 7.59C8.36552 7.18333 8.45219 6.73667 8.45219 6.25C8.45219 5.76333 8.36552 5.32 8.19219 4.92C8.01885 4.51333 7.77885 4.16333 7.47219 3.87C7.16552 3.57667 6.80885 3.35 6.40219 3.19C6.00219 3.03 5.56885 2.95 5.10219 2.95C4.64219 2.95 4.20885 3.03 3.80219 3.19C3.39552 3.35 3.03885 3.57667 2.73219 3.87C2.42552 4.16333 2.18552 4.51333 2.01219 4.92C1.83885 5.32 1.75219 5.76333 1.75219 6.25C1.75219 6.73667 1.83885 7.18 2.01219 7.58C2.18552 7.98 2.42552 8.33 2.73219 8.63C3.03885 8.92333 3.39552 9.15 3.80219 9.31C4.20885 9.46333 4.64219 9.54 5.10219 9.54ZM7.57219 6.73C7.53219 7.11667 7.40219 7.45667 7.18219 7.75C6.96885 8.03667 6.68552 8.26 6.33219 8.42C5.98552 8.58 5.58552 8.66 5.13219 8.66C4.62552 8.66 4.18219 8.56 3.80219 8.36C3.42219 8.15333 3.12552 7.87 2.91219 7.51C2.70552 7.14333 2.60219 6.72 2.60219 6.24C2.60219 5.75333 2.70552 5.33 2.91219 4.97C3.12552 4.60333 3.42219 4.32 3.80219 4.12C4.18219 3.91333 4.62552 3.81 5.13219 3.81C5.57885 3.81 5.97552 3.89 6.32219 4.05C6.67552 4.21 6.96219 4.43667 7.18219 4.73C7.40219 5.01667 7.53219 5.35333 7.57219 5.74H6.79219C6.72552 5.35333 6.54219 5.05 6.24219 4.83C5.94885 4.60333 5.57552 4.49 5.12219 4.49C4.58885 4.49 4.16552 4.65 3.85219 4.97C3.53885 5.28333 3.38219 5.70667 3.38219 6.24C3.38219 6.76667 3.53885 7.19 3.85219 7.51C4.16552 7.83 4.58885 7.99 5.12219 7.99C5.58219 7.99 5.95885 7.87667 6.25219 7.65C6.54552 7.42333 6.72552 7.11667 6.79219 6.73H7.57219ZM23.0246 2.5V10H22.1246V2.72L22.4946 2.73L18.7046 10H17.7046L13.9146 2.74L14.2846 2.73V10H13.3846V2.5H14.8046L18.5046 9.68H17.9146L21.6046 2.5H23.0246ZM25.6195 8.14V7.34H30.8995V8.14H25.6195ZM28.8495 2.5L32.5395 10H31.5195L28.0495 2.82H28.5495L25.0695 10H24.0495L27.7395 2.5H28.8495ZM34.9163 10V6.45H35.8563V10H34.9163ZM31.3663 2.5H32.4463L35.6963 6.53H35.0863L38.3163 2.5H39.3963L35.6863 7.12L35.0963 7.13L31.3663 2.5ZM39.6219 10.07C39.5019 10.07 39.3919 10.0433 39.2919 9.99C39.1919 9.93 39.1119 9.85 39.0519 9.75C38.9985 9.65 38.9719 9.54 38.9719 9.42C38.9719 9.29333 38.9985 9.18333 39.0519 9.09C39.1119 8.99 39.1885 8.91333 39.2819 8.86C39.3819 8.8 39.4952 8.77 39.6219 8.77C39.7419 8.77 39.8485 8.8 39.9419 8.86C40.0419 8.91333 40.1219 8.99 40.1819 9.09C40.2419 9.19 40.2719 9.3 40.2719 9.42C40.2719 9.54 40.2419 9.65 40.1819 9.75C40.1219 9.84333 40.0419 9.92 39.9419 9.98C39.8485 10.04 39.7419 10.07 39.6219 10.07ZM42.4945 8.14V7.34H47.7745V8.14H42.4945ZM45.7245 2.5L49.4145 10H48.3945L44.9245 2.82H45.4245L41.9445 10H40.9245L44.6145 2.5H45.7245ZM51.3754 2.5V9.58L50.9554 9.17H56.6254V10H50.4354V2.5H51.3754ZM58.6117 2.5V9.58L58.1917 9.17H63.8617V10H57.6717V2.5H58.6117ZM67.9506 6.04H71.1706C71.664 6.04 72.0573 5.91667 72.3506 5.67C72.6506 5.42333 72.8006 5.09333 72.8006 4.68C72.8006 4.26 72.6506 3.93 72.3506 3.69C72.0573 3.44333 71.664 3.32 71.1706 3.32H67.8206L68.2406 2.82V10H67.3006V2.5H71.2006C71.7073 2.5 72.1506 2.59333 72.5306 2.78C72.9106 2.96 73.2073 3.21333 73.4206 3.54C73.6406 3.86667 73.7506 4.24667 73.7506 4.68C73.7506 5.10667 73.6406 5.48333 73.4206 5.81C73.2073 6.13667 72.9106 6.39333 72.5306 6.58C72.1506 6.76 71.7073 6.85 71.2006 6.85H67.9506V6.04ZM69.6106 6.49H70.7706L73.9006 10H72.7306L69.6106 6.49ZM75.1815 2.5H76.1215V10H75.1815V2.5ZM85.3654 6.73C85.3587 7.20333 85.2654 7.64667 85.0854 8.06C84.9121 8.47333 84.6621 8.83667 84.3354 9.15C84.0154 9.45667 83.6254 9.69667 83.1654 9.87C82.7121 10.0433 82.2021 10.13 81.6354 10.13C81.0354 10.13 80.4821 10.04 79.9754 9.86C79.4754 9.67333 79.0387 9.41 78.6654 9.07C78.2987 8.73 78.0154 8.32333 77.8154 7.85C77.6154 7.37 77.5154 6.83667 77.5154 6.25C77.5154 5.66333 77.6154 5.13333 77.8154 4.66C78.0221 4.18 78.3121 3.77 78.6854 3.43C79.0587 3.09 79.4987 2.83 80.0054 2.65C80.5121 2.46333 81.0721 2.37 81.6854 2.37C82.4187 2.37 83.0654 2.49333 83.6254 2.74C84.1921 2.98667 84.6487 3.32667 84.9954 3.76C85.3421 4.18667 85.5487 4.67667 85.6154 5.23H84.6554C84.5821 4.82333 84.4121 4.47 84.1454 4.17C83.8787 3.86333 83.5354 3.62667 83.1154 3.46C82.7021 3.29333 82.2187 3.21 81.6654 3.21C81.0187 3.21 80.4554 3.33333 79.9754 3.58C79.5021 3.82667 79.1321 4.17667 78.8654 4.63C78.6054 5.08333 78.4754 5.62333 78.4754 6.25C78.4754 6.87 78.6087 7.41 78.8754 7.87C79.1421 8.33 79.5187 8.68333 80.0054 8.93C80.4921 9.17667 81.0621 9.3 81.7154 9.3C82.3554 9.3 82.9121 9.18333 83.3854 8.95C83.8654 8.71667 84.2387 8.39667 84.5054 7.99C84.7721 7.58333 84.9121 7.11667 84.9254 6.59L85.3654 6.73ZM82.0854 7.14V6.39H85.7054V10H84.9754L84.8854 6.82L85.1454 7.14H82.0854ZM87.2616 2.5H88.2016V10H87.2616V2.5ZM93.4616 2.5H94.4016V10H93.4616V2.5ZM87.7416 5.82H93.9716V6.65H87.7416V5.82ZM98.6669 2.95H99.6069V10H98.6669V2.95ZM95.4469 2.5H102.827V3.33H95.4469V2.5ZM103.08 7.57H104.03C104.077 7.92333 104.217 8.23333 104.45 8.5C104.683 8.76667 104.99 8.97333 105.37 9.12C105.757 9.26 106.2 9.33 106.7 9.33C107.453 9.33 108.05 9.20333 108.49 8.95C108.937 8.69 109.16 8.34 109.16 7.9C109.16 7.56 109.02 7.3 108.74 7.12C108.467 6.94 107.987 6.81 107.3 6.73L105.85 6.55C104.937 6.44333 104.28 6.22667 103.88 5.9C103.48 5.56667 103.28 5.12 103.28 4.56C103.28 4.11333 103.413 3.72667 103.68 3.4C103.947 3.06667 104.32 2.81333 104.8 2.64C105.287 2.46 105.853 2.37 106.5 2.37C107.147 2.37 107.72 2.47 108.22 2.67C108.727 2.86333 109.127 3.13667 109.42 3.49C109.72 3.83667 109.883 4.24667 109.91 4.72H108.96C108.92 4.4 108.793 4.12667 108.58 3.9C108.367 3.66667 108.08 3.48667 107.72 3.36C107.367 3.22667 106.953 3.16 106.48 3.16C105.793 3.16 105.243 3.28333 104.83 3.53C104.423 3.77 104.22 4.10667 104.22 4.54C104.22 4.87333 104.353 5.13 104.62 5.31C104.893 5.48333 105.353 5.61 106 5.69L107.42 5.88C108.08 5.96 108.603 6.07667 108.99 6.23C109.383 6.38333 109.667 6.59 109.84 6.85C110.013 7.10333 110.1 7.42667 110.1 7.82C110.1 8.29333 109.957 8.70333 109.67 9.05C109.39 9.39667 108.993 9.66333 108.48 9.85C107.967 10.0367 107.37 10.13 106.69 10.13C106.003 10.13 105.393 10.0233 104.86 9.81C104.327 9.59 103.903 9.29 103.59 8.91C103.277 8.52333 103.107 8.07667 103.08 7.57ZM114.855 6.04H118.075C118.568 6.04 118.962 5.91667 119.255 5.67C119.555 5.42333 119.705 5.09333 119.705 4.68C119.705 4.26 119.555 3.93 119.255 3.69C118.962 3.44333 118.568 3.32 118.075 3.32H114.725L115.145 2.82V10H114.205V2.5H118.105C118.612 2.5 119.055 2.59333 119.435 2.78C119.815 2.96 120.112 3.21333 120.325 3.54C120.545 3.86667 120.655 4.24667 120.655 4.68C120.655 5.10667 120.545 5.48333 120.325 5.81C120.112 6.13667 119.815 6.39333 119.435 6.58C119.055 6.76 118.612 6.85 118.105 6.85H114.855V6.04ZM116.515 6.49H117.675L120.805 10H119.635L116.515 6.49ZM127.866 5.85V6.65H122.756V5.85H127.866ZM123.346 6.25L122.776 9.77L122.276 9.18H128.136V10H121.816L122.436 6.25L121.816 2.5H128.086V3.32H122.276L122.776 2.73L123.346 6.25ZM129.076 7.57H130.026C130.073 7.92333 130.213 8.23333 130.446 8.5C130.679 8.76667 130.986 8.97333 131.366 9.12C131.753 9.26 132.196 9.33 132.696 9.33C133.449 9.33 134.046 9.20333 134.486 8.95C134.933 8.69 135.156 8.34 135.156 7.9C135.156 7.56 135.016 7.3 134.736 7.12C134.463 6.94 133.983 6.81 133.296 6.73L131.846 6.55C130.933 6.44333 130.276 6.22667 129.876 5.9C129.476 5.56667 129.276 5.12 129.276 4.56C129.276 4.11333 129.409 3.72667 129.676 3.4C129.943 3.06667 130.316 2.81333 130.796 2.64C131.283 2.46 131.849 2.37 132.496 2.37C133.143 2.37 133.716 2.47 134.216 2.67C134.723 2.86333 135.123 3.13667 135.416 3.49C135.716 3.83667 135.879 4.24667 135.906 4.72H134.956C134.916 4.4 134.789 4.12667 134.576 3.9C134.363 3.66667 134.076 3.48667 133.716 3.36C133.363 3.22667 132.949 3.16 132.476 3.16C131.789 3.16 131.239 3.28333 130.826 3.53C130.419 3.77 130.216 4.10667 130.216 4.54C130.216 4.87333 130.349 5.13 130.616 5.31C130.889 5.48333 131.349 5.61 131.996 5.69L133.416 5.88C134.076 5.96 134.599 6.07667 134.986 6.23C135.379 6.38333 135.663 6.59 135.836 6.85C136.009 7.10333 136.096 7.42667 136.096 7.82C136.096 8.29333 135.953 8.70333 135.666 9.05C135.386 9.39667 134.989 9.66333 134.476 9.85C133.963 10.0367 133.366 10.13 132.686 10.13C131.999 10.13 131.389 10.0233 130.856 9.81C130.323 9.59 129.899 9.29 129.586 8.91C129.273 8.52333 129.103 8.07667 129.076 7.57ZM143.217 5.85V6.65H138.107V5.85H143.217ZM138.697 6.25L138.127 9.77L137.627 9.18H143.487V10H137.167L137.787 6.25L137.167 2.5H143.437V3.32H137.627L138.127 2.73L138.697 6.25ZM145.597 6.04H148.817C149.31 6.04 149.704 5.91667 149.997 5.67C150.297 5.42333 150.447 5.09333 150.447 4.68C150.447 4.26 150.297 3.93 149.997 3.69C149.704 3.44333 149.31 3.32 148.817 3.32H145.467L145.887 2.82V10H144.947V2.5H148.847C149.354 2.5 149.797 2.59333 150.177 2.78C150.557 2.96 150.854 3.21333 151.067 3.54C151.287 3.86667 151.397 4.24667 151.397 4.68C151.397 5.10667 151.287 5.48333 151.067 5.81C150.854 6.13667 150.557 6.39333 150.177 6.58C149.797 6.76 149.354 6.85 148.847 6.85H145.597V6.04ZM147.257 6.49H148.417L151.547 10H150.377L147.257 6.49ZM156.136 9.63H155.646L159.056 2.5H160.076L156.386 10H155.366L151.676 2.5H152.696L156.136 9.63ZM166.879 5.85V6.65H161.769V5.85H166.879ZM162.359 6.25L161.789 9.77L161.289 9.18H167.149V10H160.829L161.449 6.25L160.829 2.5H167.099V3.32H161.289L161.789 2.73L162.359 6.25ZM171.819 2.5C172.653 2.5 173.386 2.65667 174.019 2.97C174.653 3.28333 175.146 3.72333 175.499 4.29C175.853 4.85 176.029 5.50333 176.029 6.25C176.029 6.99 175.853 7.64333 175.499 8.21C175.146 8.77 174.653 9.21 174.019 9.53C173.386 9.84333 172.653 10 171.819 10H168.609V2.5H171.819ZM169.549 9.75L168.949 9.17H171.859C172.499 9.17 173.059 9.04667 173.539 8.8C174.019 8.55333 174.393 8.21 174.659 7.77C174.933 7.33 175.069 6.82333 175.069 6.25C175.069 5.66333 174.933 5.15333 174.659 4.72C174.393 4.28 174.019 3.93667 173.539 3.69C173.059 3.44333 172.499 3.32 171.859 3.32H168.949L169.549 2.75V9.75Z" fill="#5D5D5D"/>
</g>
</svg>
