<svg width="74" height="24" viewBox="0 0 74 24" fill="none" xmlns="http://www.w3.org/2000/svg">
<g clip-path="url(#clip0_123_170)">
<mask id="mask0_123_170" style="mask-type:luminance" maskUnits="userSpaceOnUse" x="0" y="0" width="24" height="24">
<path d="M0 0H24V24H0V0Z" fill="white"/>
</mask>
<g mask="url(#mask0_123_170)">
<path d="M0.0327759 0.0327148H23.9672V23.9671H0.0327759V0.0327148Z" fill="white"/>
<path d="M4.55737 4.68848H19.2131V8.09831H4.55737V4.68848Z" fill="url(#paint0_linear_123_170)"/>
<path fill-rule="evenodd" clip-rule="evenodd" d="M15.6642 4.68848H19.2131V8.08835H17.0462V8.0892L17.0275 8.08831C15.24 8.08831 13.7698 9.33271 13.5931 10.9274L13.5882 11.0132C13.5839 13.8339 13.5796 16.6546 13.575 19.4754H10.295V11.0132L10.3322 10.4333C10.6271 7.75077 12.648 5.53959 15.3527 4.76244L15.6642 4.68848Z" fill="url(#paint1_linear_123_170)"/>
</g>
</g>
<path d="M33.318 10.536C33.318 9.56533 33.304 8.59933 33.276 7.638C33.0333 7.638 32.7767 7.64267 32.506 7.652C32.2447 7.652 31.9787 7.66133 31.708 7.68C31.4467 7.68933 31.19 7.70333 30.938 7.722C30.6953 7.74067 30.476 7.764 30.28 7.792C30.3267 7.624 30.35 7.47467 30.35 7.344C30.35 7.24133 30.3267 7.09667 30.28 6.91C30.896 6.92867 31.498 6.94733 32.086 6.966C32.674 6.97533 33.276 6.98 33.892 6.98C34.508 6.98 35.11 6.97533 35.698 6.966C36.286 6.94733 36.888 6.92867 37.504 6.91C37.4573 7.09667 37.434 7.246 37.434 7.358C37.434 7.47933 37.4573 7.624 37.504 7.792C37.308 7.764 37.084 7.74067 36.832 7.722C36.5893 7.70333 36.3327 7.68933 36.062 7.68C35.8007 7.66133 35.5347 7.652 35.264 7.652C35.0027 7.64267 34.7507 7.638 34.508 7.638C34.48 8.59933 34.466 9.56533 34.466 10.536V12.944C34.466 13.56 34.4753 14.1667 34.494 14.764C34.522 15.3613 34.55 15.9493 34.578 16.528C34.3633 16.5093 34.1347 16.5 33.892 16.5C33.6493 16.5 33.4207 16.5093 33.206 16.528C33.234 15.9493 33.2573 15.3613 33.276 14.764C33.304 14.1667 33.318 13.56 33.318 12.944V10.536ZM43.9438 6.728C44.5878 8.05333 45.2364 9.34133 45.8898 10.592C46.5524 11.8427 47.2431 13.126 47.9618 14.442C48.0551 14.2647 48.1904 14.0127 48.3678 13.686C48.5451 13.35 48.7504 12.9673 48.9838 12.538C49.2171 12.1087 49.4644 11.6467 49.7258 11.152C49.9964 10.648 50.2671 10.1393 50.5378 9.626C50.8178 9.11267 51.0931 8.60867 51.3638 8.114C51.6344 7.61933 51.8864 7.15733 52.1198 6.728H52.3018C52.4044 7.624 52.4978 8.492 52.5818 9.332C52.6751 10.1627 52.7684 10.984 52.8618 11.796C52.9551 12.5987 53.0484 13.3967 53.1418 14.19C53.2351 14.974 53.3378 15.7533 53.4498 16.528C53.3378 16.5093 53.2258 16.5 53.1138 16.5C53.0111 16.5 52.9038 16.5 52.7918 16.5C52.6798 16.5 52.5678 16.5 52.4558 16.5C52.3531 16.5 52.2458 16.5093 52.1338 16.528C52.0311 15.2867 51.9284 14.0827 51.8258 12.916C51.7231 11.7493 51.5971 10.5593 51.4478 9.346H51.4198C50.7758 10.522 50.1411 11.6933 49.5158 12.86C48.8998 14.0173 48.3118 15.2307 47.7518 16.5H47.6258C47.0658 15.324 46.4778 14.148 45.8618 12.972C45.2551 11.7867 44.6438 10.578 44.0278 9.346H43.9998C43.9344 9.92467 43.8598 10.5547 43.7758 11.236C43.7011 11.908 43.6311 12.5753 43.5658 13.238C43.5004 13.8913 43.4444 14.512 43.3978 15.1C43.3511 15.6787 43.3278 16.1547 43.3278 16.528C43.1784 16.5093 43.0151 16.5 42.8378 16.5C42.6604 16.5 42.4971 16.5093 42.3478 16.528C42.4691 15.772 42.5951 14.974 42.7258 14.134C42.8564 13.294 42.9824 12.4493 43.1038 11.6C43.2251 10.7507 43.3371 9.91533 43.4398 9.094C43.5424 8.26333 43.6311 7.47467 43.7058 6.728H43.9438ZM57.0152 12.174C57.2579 12.174 57.5099 12.1787 57.7712 12.188C58.0325 12.1973 58.2845 12.202 58.5272 12.202C58.7885 12.202 59.0499 12.202 59.3112 12.202C59.5725 12.1927 59.8339 12.1833 60.0952 12.174L58.5412 8.618L57.0152 12.174ZM63.2172 16.528C63.0865 16.5093 62.9605 16.5 62.8392 16.5C62.7272 16.5 62.6059 16.5 62.4752 16.5C62.3445 16.5 62.2185 16.5 62.0972 16.5C61.9852 16.5 61.8639 16.5093 61.7332 16.528C61.6679 16.3133 61.5792 16.0567 61.4672 15.758C61.3552 15.45 61.2292 15.1327 61.0892 14.806C60.9585 14.47 60.8232 14.134 60.6832 13.798C60.5432 13.4527 60.4125 13.126 60.2912 12.818C59.9925 12.8087 59.6892 12.804 59.3812 12.804C59.0732 12.7947 58.7652 12.79 58.4572 12.79C58.1679 12.79 57.8832 12.7947 57.6032 12.804C57.3232 12.804 57.0385 12.8087 56.7492 12.818C56.4505 13.546 56.1799 14.2413 55.9372 14.904C55.6945 15.5573 55.5125 16.0987 55.3912 16.528C55.2325 16.5093 55.0599 16.5 54.8732 16.5C54.6865 16.5 54.5139 16.5093 54.3552 16.528C55.1112 14.8947 55.8485 13.2707 56.5672 11.656C57.2859 10.0413 58.0092 8.39867 58.7372 6.728H59.0032C59.2272 7.26933 59.4699 7.85733 59.7312 8.492C59.9925 9.11733 60.2585 9.752 60.5292 10.396C60.7999 11.04 61.0705 11.6793 61.3412 12.314C61.6119 12.9487 61.8639 13.5413 62.0972 14.092C62.3399 14.6333 62.5545 15.1187 62.7412 15.548C62.9372 15.9773 63.0959 16.304 63.2172 16.528ZM65.9751 11.586C66.2924 11.6607 66.6237 11.698 66.9691 11.698C67.2584 11.698 67.5571 11.6653 67.8651 11.6C68.1731 11.5347 68.4531 11.418 68.7051 11.25C68.9664 11.0727 69.1764 10.8347 69.3351 10.536C69.5031 10.228 69.5871 9.836 69.5871 9.36C69.5871 8.95867 69.5311 8.632 69.4191 8.38C69.3071 8.128 69.1484 7.932 68.9431 7.792C68.7471 7.652 68.5044 7.55867 68.2151 7.512C67.9257 7.456 67.5991 7.428 67.2351 7.428H65.9751V11.586ZM64.8271 10.536C64.8271 9.92 64.8131 9.318 64.7851 8.73C64.7664 8.13267 64.7431 7.526 64.7151 6.91C64.9391 6.92867 65.1631 6.94733 65.3871 6.966C65.6204 6.97533 65.8491 6.98 66.0731 6.98C66.1851 6.98 66.3204 6.97533 66.4791 6.966C66.6377 6.95667 66.7964 6.952 66.9551 6.952C67.1231 6.94267 67.2817 6.93333 67.4311 6.924C67.5804 6.91467 67.7064 6.91 67.8091 6.91C67.9491 6.91 68.1217 6.91467 68.3271 6.924C68.5324 6.93333 68.7471 6.96133 68.9711 7.008C69.2044 7.05467 69.4331 7.12467 69.6571 7.218C69.8811 7.31133 70.0817 7.44667 70.2591 7.624C70.4457 7.80133 70.5951 8.02533 70.7071 8.296C70.8191 8.55733 70.8751 8.884 70.8751 9.276C70.8751 9.892 70.7397 10.3913 70.4691 10.774C70.2077 11.1567 69.8811 11.4553 69.4891 11.67C69.1064 11.8847 68.6957 12.0293 68.2571 12.104C67.8277 12.1787 67.4451 12.216 67.1091 12.216C66.8944 12.216 66.6984 12.216 66.5211 12.216C66.3437 12.2067 66.1617 12.1927 65.9751 12.174V12.944C65.9751 13.56 65.9844 14.1667 66.0031 14.764C66.0311 15.3613 66.0591 15.9493 66.0871 16.528C65.8724 16.5093 65.6437 16.5 65.4011 16.5C65.1584 16.5 64.9297 16.5093 64.7151 16.528C64.7431 15.9493 64.7664 15.3613 64.7851 14.764C64.8131 14.1667 64.8271 13.56 64.8271 12.944V10.536Z" fill="#323232"/>
<defs>
<linearGradient id="paint0_linear_123_170" x1="4.55737" y1="6.39339" x2="19.2131" y2="6.39339" gradientUnits="userSpaceOnUse">
<stop stop-color="#F645B9"/>
<stop offset="0.61" stop-color="#783BFF"/>
<stop offset="1" stop-color="#783BFF"/>
</linearGradient>
<linearGradient id="paint1_linear_123_170" x1="20.237" y1="5.54762" x2="9.27114" y2="18.6162" gradientUnits="userSpaceOnUse">
<stop stop-color="#33E6AF"/>
<stop offset="0.85" stop-color="#0264FF"/>
<stop offset="1" stop-color="#0264FF"/>
</linearGradient>
<clipPath id="clip0_123_170">
<rect width="24" height="24" fill="white"/>
</clipPath>
</defs>
</svg>
